<svg width="352" height="69" viewBox="0 0 352 69" fill="none" xmlns="http://www.w3.org/2000/svg">
<g clip-path="url(#clip0)">
<path d="M0.554575 47.3839C0.251007 47.3839 -0.0160804 47.6334 0.00129113 47.937C0.0186627 48.2407 0.237544 48.3948 0.557181 48.4577L0.704405 48.4881C3.73183 49.1063 31.2392 53.8488 42.5525 24.3032L42.7414 23.8042C43.7082 21.3571 43.1671 20.3548 43.1671 20.3548C42.9325 19.8341 42.5139 19.7018 42.5139 19.7018C38.4402 18.2852 36.1581 16.977 36.1581 16.977C36.1581 16.977 35.0744 16.2394 34.5789 17.6777C34.5789 17.6777 33.9275 19.9122 33.5545 20.9601C28.1107 35.1568 24.5908 47.6116 0.628839 47.3839H0.554575Z" fill="white"/>
<path d="M63.8591 73.6448C64.0111 73.9117 64.3585 74.0136 64.6121 73.8488C64.8661 73.6795 64.8944 73.417 64.7836 73.1068L64.7403 72.9636C63.763 70.0349 54.118 43.8649 22.8492 48.846L22.3259 48.9348C19.7158 49.3254 19.1186 50.293 19.1186 50.293C18.7881 50.7573 18.884 51.1868 18.884 51.1868C19.6871 55.4172 19.6958 58.0444 19.6958 58.0444C19.6958 58.0444 19.6007 59.3482 21.0898 59.0618C21.0898 59.0618 23.3573 58.5064 24.4491 58.3025C39.4781 55.9162 52.0351 52.738 63.8195 73.5776L63.8591 73.6448Z" fill="white"/>
<path d="M54.9693 5.74552C55.1213 5.47649 55.0431 5.12938 54.7651 4.99054C54.4933 4.8517 54.2505 4.96455 54.0377 5.21191L53.9374 5.32032C51.8854 7.63291 34.0257 29.0606 53.9765 53.6251L54.313 54.0351C55.959 56.0938 57.0924 56.1286 57.0924 56.1286C57.6619 56.185 57.9871 55.8878 57.9871 55.8878C61.2556 53.0763 63.5265 51.755 63.5265 51.755C63.5265 51.755 64.7078 51.1867 63.7089 50.0368C63.7089 50.0368 62.0999 48.3556 61.375 47.5116C51.7941 35.7012 42.7549 26.429 54.9297 5.81061L54.9693 5.74552Z" fill="white"/>
<path d="M86.4756 38.0473V44.4953C86.4756 48.2601 83.9072 49.5596 80.7885 49.5596C77.4862 49.5596 75.1016 48.0271 75.1016 44.5113V38.0473H77.9371V44.5782C77.9371 46.2113 79.1209 47.194 80.7555 47.194C82.256 47.194 83.6402 46.4109 83.6402 44.3781V38.0473H86.4756Z" fill="white"/>
<path d="M100.784 49.4102H98.3991L92.1123 42.1291V49.4102H89.2769V38.0475H91.8786L97.9492 44.9949V38.0475H100.784V49.4102Z" fill="white"/>
<path d="M106.603 49.4102H103.769V38.0475H106.603V49.4102Z" fill="white"/>
<path d="M115.026 49.5596H113.792L108.288 38.0473H111.373L114.375 44.5282L117.227 38.0473H120.279L115.026 49.5596Z" fill="white"/>
<path d="M130.302 49.4102H121.913V38.0475H130.185V40.1302H124.748V42.5126H129.935V44.5953H124.748V47.3275H130.302V49.4102Z" fill="white"/>
<path d="M135.637 42.7122H137.139C137.923 42.7122 138.69 42.379 138.69 41.4127C138.69 40.5631 138.139 40.1302 137.072 40.1302H135.637V42.7122ZM137.888 38.0475C140.223 38.0475 141.608 39.613 141.608 41.3129C141.608 42.5625 140.958 43.4954 139.657 44.095C140.825 44.6781 141.174 46.0779 142.775 49.4102H139.657C138.44 46.9777 137.99 44.7949 136.454 44.7949H135.637V49.4102H132.803V38.0475H137.888Z" fill="white"/>
<path d="M152.064 40.996C150.414 40.2631 149.429 39.9793 148.462 39.9793C147.445 39.9793 146.794 40.346 146.794 40.9127C146.794 42.6291 152.581 42.1457 152.581 46.1107C152.581 48.294 150.746 49.5596 148.213 49.5596C146.227 49.5596 145.243 49.0433 144.109 48.4606V46.0108C145.743 47.0943 146.744 47.4769 147.995 47.4769C149.079 47.4769 149.662 47.0943 149.662 46.4274C149.662 44.5612 143.875 45.2446 143.875 41.1622C143.875 39.1962 145.577 37.8967 148.213 37.8967C149.479 37.8967 150.63 38.1636 152.064 38.7797V40.996Z" fill="white"/>
<path d="M157.767 49.4102H154.932V38.0475H157.767V49.4102Z" fill="white"/>
<path d="M170.992 40.1302H166.873V49.4102H164.038V40.1302H159.918V38.0475H170.992V40.1302Z" fill="white"/>
<path d="M176.262 44.095L171.776 38.0475H175.211L177.679 41.6127L180.164 38.0475H183.583L179.097 44.095V49.4102H176.262V44.095Z" fill="white"/>
<path d="M201.51 49.4102H198.675V44.8113H193.005V49.4102H190.17V38.0475H193.005V42.6124H198.675V38.0475H201.51V49.4102Z" fill="white"/>
<path d="M212.8 49.4102H204.411V38.0475H212.684V40.1302H207.247V42.5126H212.433V44.5953H207.247V47.3275H212.8V49.4102Z" fill="white"/>
<path d="M220.355 40.7627L218.687 45.178H222.189L220.355 40.7627ZM227.009 49.4102H223.956L223.023 47.1609H217.936L217.086 49.4102H214.084L218.671 38.0475H221.956L227.009 49.4102Z" fill="white"/>
<path d="M237.332 49.4102H228.66V38.0475H231.495V47.3275H237.332V49.4102Z" fill="white"/>
<path d="M247.438 40.1302H243.317V49.4102H240.483V40.1302H236.364V38.0475H247.438V40.1302Z" fill="white"/>
<path d="M260.845 49.4102H258.01V44.8113H252.341V49.4102H249.504V38.0475H252.341V42.6124H258.01V38.0475H260.845V49.4102Z" fill="white"/>
<path d="M276.321 40.996C274.671 40.2631 273.686 39.9793 272.718 39.9793C271.702 39.9793 271.051 40.346 271.051 40.9127C271.051 42.6291 276.838 42.1457 276.838 46.1107C276.838 48.294 275.003 49.5596 272.468 49.5596C270.484 49.5596 269.5 49.0433 268.366 48.4606V46.0108C270 47.0943 271.001 47.4769 272.251 47.4769C273.335 47.4769 273.919 47.0943 273.919 46.4274C273.919 44.5612 268.132 45.2446 268.132 41.1622C268.132 39.1962 269.833 37.8967 272.468 37.8967C273.736 37.8967 274.886 38.1636 276.321 38.7797V40.996Z" fill="white"/>
<path d="M287.511 49.4102H279.122V38.0475H287.394V40.1302H281.957V42.5126H287.144V44.5953H281.957V47.3275H287.511V49.4102Z" fill="white"/>
<path d="M292.847 42.7122H294.348C295.132 42.7122 295.899 42.379 295.899 41.4127C295.899 40.5631 295.349 40.1302 294.281 40.1302H292.847V42.7122ZM295.099 38.0475C297.433 38.0475 298.817 39.613 298.817 41.3129C298.817 42.5625 298.167 43.4954 296.867 44.095C298.034 44.6781 298.384 46.0779 299.985 49.4102H296.867C295.649 46.9777 295.2 44.7949 293.664 44.7949H292.847V49.4102H290.012V38.0475H295.099Z" fill="white"/>
<path d="M306.108 49.5596H304.874L299.37 38.0473H302.456L305.458 44.5282L308.31 38.0473H311.362L306.108 49.5596Z" fill="white"/>
<path d="M315.898 49.4102H313.063V38.0475H315.898V49.4102Z" fill="white"/>
<path d="M329.455 48.4272C327.87 49.2433 326.67 49.5596 324.987 49.5596C320.566 49.5596 318.365 46.6942 318.365 43.762C318.365 40.7295 320.851 37.8967 325.203 37.8967C326.788 37.8967 328.204 38.2303 329.322 38.8968V41.429C328.072 40.7295 326.803 40.2631 325.403 40.2631C322.985 40.2631 321.283 41.6958 321.283 43.7121C321.283 45.7449 322.968 47.194 325.336 47.194C326.821 47.194 327.82 46.7276 329.455 45.9444V48.4272Z" fill="white"/>
<path d="M340.462 49.4102H332.074V38.0475H340.345V40.1302H334.908V42.5126H340.095V44.5953H334.908V47.3275H340.462V49.4102Z" fill="white"/>
<path d="M350.602 40.996C348.95 40.2631 347.966 39.9793 346.999 39.9793C345.982 39.9793 345.331 40.346 345.331 40.9127C345.331 42.6291 351.118 42.1457 351.118 46.1107C351.118 48.294 349.284 49.5596 346.75 49.5596C344.765 49.5596 343.78 49.0433 342.646 48.4606V46.0108C344.281 47.0943 345.281 47.4769 346.532 47.4769C347.616 47.4769 348.2 47.0943 348.2 46.4274C348.2 44.5612 342.413 45.2446 342.413 41.1622C342.413 39.1962 344.115 37.8967 346.75 37.8967C348.016 37.8967 349.168 38.1636 350.602 38.7797V40.996Z" fill="white"/>
</g>
<defs>
<clipPath id="clip0">
<rect width="352" height="69" fill="white"/>
</clipPath>
</defs>
</svg>
